<?xml version="1.0" encoding="UTF-8" standalone="no"?>
<!-- Created with Inkscape (http://www.inkscape.org/) -->

<svg
   xmlns:dc="http://purl.org/dc/elements/1.1/"
   xmlns:cc="http://creativecommons.org/ns#"
   xmlns:rdf="http://www.w3.org/1999/02/22-rdf-syntax-ns#"
   xmlns:svg="http://www.w3.org/2000/svg"
   xmlns="http://www.w3.org/2000/svg"
   xmlns:sodipodi="http://sodipodi.sourceforge.net/DTD/sodipodi-0.dtd"
   xmlns:inkscape="http://www.inkscape.org/namespaces/inkscape"
   width="297mm"
   height="210mm"
   viewBox="0 0 297 210"
   version="1.1"
   id="svg838"
   inkscape:version="0.92.2 (5c3e80d, 2017-08-06)"
   sodipodi:docname="floorplan.svg">
  <defs
     id="defs832" />
  <sodipodi:namedview
     id="base"
     pagecolor="#ffffff"
     bordercolor="#666666"
     borderopacity="1.0"
     inkscape:pageopacity="0.0"
     inkscape:pageshadow="2"
     inkscape:zoom="0.7"
     inkscape:cx="166.50521"
     inkscape:cy="569.28478"
     inkscape:document-units="mm"
     inkscape:current-layer="layer1"
     showgrid="true"
     inkscape:window-width="1920"
     inkscape:window-height="1001"
     inkscape:window-x="-9"
     inkscape:window-y="-9"
     inkscape:window-maximized="1">
    <inkscape:grid
       type="xygrid"
       id="grid1774" />
  </sodipodi:namedview>
  <metadata
     id="metadata835">
    <rdf:RDF>
      <cc:Work
         rdf:about="">
        <dc:format>image/svg+xml</dc:format>
        <dc:type
           rdf:resource="http://purl.org/dc/dcmitype/StillImage" />
        <dc:title />
      </cc:Work>
    </rdf:RDF>
  </metadata>
  <g
     inkscape:label="Calque 1"
     inkscape:groupmode="layer"
     id="layer1"
     transform="translate(0,-87)">
    <rect
       style="opacity:1;fill:#000000;fill-opacity:1;stroke:#000000;stroke-width:0.43520582;stroke-miterlimit:4;stroke-dasharray:none;stroke-opacity:0.00507615"
       id="rect840"
       width="115.67351"
       height="2.1279435"
       x="21.133175"
       y="117.13581" />
    <rect
       style="opacity:1;fill:#000000;fill-opacity:1;stroke:#000000;stroke-width:0.53897828;stroke-miterlimit:4;stroke-dasharray:none;stroke-opacity:0.00507615"
       id="rect840-0"
       width="2.2393432"
       height="168.58791"
       x="21.162258"
       y="117.03407" />
    <rect
       style="opacity:1;fill:#000000;fill-opacity:1;stroke:#000000;stroke-width:0.2394338;stroke-miterlimit:4;stroke-dasharray:none;stroke-opacity:0.00507615"
       id="rect840-4"
       width="32.538349"
       height="2.2897072"
       x="21.117455"
       y="284.6095" />
    <rect
       style="opacity:1;fill:#000000;fill-opacity:1;stroke:#000000;stroke-width:0.14423914;stroke-miterlimit:4;stroke-dasharray:none;stroke-opacity:0.00507615"
       id="rect840-4-1"
       width="11.349957"
       height="2.3821907"
       x="86.042625"
       y="284.75418" />
    <rect
       style="opacity:1;fill:#000000;fill-opacity:1;stroke:#000000;stroke-width:0.17114936;stroke-miterlimit:4;stroke-dasharray:none;stroke-opacity:0.00507615"
       id="rect840-4-5"
       width="16.285812"
       height="2.3374677"
       x="97.392586"
       y="284.79892" />
    <rect
       style="opacity:1;fill:#000000;fill-opacity:1;stroke:#000000;stroke-width:0.36155722;stroke-miterlimit:4;stroke-dasharray:none;stroke-opacity:0.00507615"
       id="rect840-0-5"
       width="2.2393432"
       height="75.86438"
       x="98.259529"
       y="209.20392" />
    <rect
       style="opacity:1;fill:#000000;fill-opacity:1;stroke:#000000;stroke-width:0.2737025;stroke-miterlimit:4;stroke-dasharray:none;stroke-opacity:0.00507615"
       id="rect840-4-1-5"
       width="43.146267"
       height="2.2564144"
       x="148.28107"
       y="284.81705" />
    <rect
       style="opacity:1;fill:#000000;fill-opacity:1;stroke:#000000;stroke-width:0.3598339;stroke-miterlimit:4;stroke-dasharray:none;stroke-opacity:0.00507615"
       id="rect840-0-5-7"
       width="2.2393432"
       height="75.142906"
       x="169.25894"
       y="211.12189" />
    <rect
       style="opacity:1;fill:#000000;fill-opacity:1;stroke:#000000;stroke-width:0.25446463;stroke-miterlimit:4;stroke-dasharray:none;stroke-opacity:0.00507615"
       id="rect840-4-1-5-9"
       width="37.722782"
       height="2.2307744"
       x="242.73555"
       y="284.18588" />
    <rect
       style="opacity:1;fill:#000000;fill-opacity:1;stroke:#000000;stroke-width:0.53636503;stroke-miterlimit:4;stroke-dasharray:none;stroke-opacity:0.00507615"
       id="rect840-0-9"
       width="2.2393432"
       height="166.95708"
       x="278.21896"
       y="119.45959" />
    <rect
       style="opacity:1;fill:#000000;fill-opacity:1;stroke:#000000;stroke-width:0.26853308;stroke-miterlimit:4;stroke-dasharray:none;stroke-opacity:0.00507615"
       id="rect840-0-5-7-2"
       width="45.815266"
       height="2.0454547"
       x="123.95763"
       y="207.13603" />
    <rect
       style="opacity:1;fill:#000000;fill-opacity:1;stroke:#000000;stroke-width:0.28431174;stroke-miterlimit:4;stroke-dasharray:none;stroke-opacity:0.00507615"
       id="rect840-4-1-5-6"
       width="46.769604"
       height="2.2461073"
       x="23.428989"
       y="206.77821" />
    <rect
       style="opacity:1;fill:#000000;fill-opacity:1;stroke:#000000;stroke-width:0.31649682;stroke-miterlimit:4;stroke-dasharray:none;stroke-opacity:0.00507615"
       id="rect840-0-5-4"
       width="2.2795959"
       height="57.106483"
       x="68.697525"
       y="119.33447" />
    <rect
       style="opacity:1;fill:#000000;fill-opacity:0;stroke:#000000;stroke-width:0.15158638;stroke-miterlimit:4;stroke-dasharray:none;stroke-opacity:0.00507615"
       id="rect1571"
       width="1.8188814"
       height="1.7899501"
       x="66.89048"
       y="185.74034" />
    <rect
       style="opacity:1;fill:#000000;fill-opacity:1;stroke:#000000;stroke-width:0.43430161;stroke-miterlimit:4;stroke-dasharray:none;stroke-opacity:0.00507615"
       id="rect840-5"
       width="116.70451"
       height="2.100389"
       x="163.73923"
       y="117.43174" />
    <rect
       style="opacity:1;fill:#000000;fill-opacity:1;stroke:#000000;stroke-width:0.2784785;stroke-miterlimit:4;stroke-dasharray:none;stroke-opacity:0.00507615"
       id="rect840-0-5-4-5"
       width="2.325309"
       height="43.341827"
       x="167.8889"
       y="119.45959" />
    <rect
       style="opacity:1;fill:#000000;fill-opacity:1;stroke:#000000;stroke-width:0.28063408;stroke-miterlimit:4;stroke-dasharray:none;stroke-opacity:0.00507615"
       id="rect840-0-5-4-5-2"
       width="2.3185091"
       height="44.144501"
       x="128.83459"
       y="118.97449" />
    <rect
       style="opacity:1;fill:#000000;fill-opacity:1;stroke:#000000;stroke-width:0.22329235;stroke-miterlimit:4;stroke-dasharray:none;stroke-opacity:0.00507615"
       id="rect840-4-1-5-6-4"
       width="27.852451"
       height="2.3264241"
       x="70.407089"
       y="160.69347" />
    <rect
       style="opacity:1;fill:#000000;fill-opacity:1;stroke:#000000;stroke-width:0.10804325;stroke-miterlimit:4;stroke-dasharray:none;stroke-opacity:0.00507615"
       id="rect840-0-5-6"
       width="2.2393432"
       height="6.7745285"
       x="67.959251"
       y="200.00369" />
    <rect
       style="opacity:1;fill:#000000;fill-opacity:1;stroke:#000000;stroke-width:0.1010332;stroke-miterlimit:4;stroke-dasharray:none;stroke-opacity:0.00507615"
       id="rect840-4-1-5-6-4-69"
       width="5.5135851"
       height="2.4060175"
       x="123.58366"
       y="160.71298" />
    <rect
       style="opacity:1;fill:#000000;fill-opacity:1;stroke:#000000;stroke-width:0.17063694;stroke-miterlimit:4;stroke-dasharray:none;stroke-opacity:0.00507615"
       id="rect840-0-5-4-5-5"
       width="2.3422782"
       height="16.155197"
       x="169.15601"
       y="194.96669" />
    <rect
       style="opacity:1;fill:#000000;fill-opacity:1;stroke:#000000;stroke-width:0.16668801;stroke-miterlimit:4;stroke-dasharray:none;stroke-opacity:0.00507615"
       id="rect840-0-5-6-4"
       width="2.5698228"
       height="14.05109"
       x="129.09724"
       y="194.65079" />
    <rect
       style="opacity:1;fill:#000000;fill-opacity:0;stroke:#000000;stroke-width:0.3264876;stroke-miterlimit:4;stroke-dasharray:none;stroke-opacity:0.00507615"
       id="rect1791"
       width="2.5698094"
       height="2.4255221"
       x="129.09726"
       y="163.11899" />
    <path
       style="opacity:1;fill:#000000;fill-opacity:0;stroke:#000000;stroke-width:0.3264876;stroke-miterlimit:4;stroke-dasharray:none;stroke-opacity:0.00507615"
       id="path1799"
       d="m 140.13225,116.49156 c 0.84536,0.53266 1.65049,1.11499 2.46529,1.68708 0.43629,0.43049 1.01149,0.68465 1.48386,1.07142 0.41352,0.35537 0.88442,0.64519 1.31624,0.97936 0.46411,0.31813 0.91455,0.6679 1.30904,1.06247 0.44044,0.3661 0.92326,0.6777 1.39611,1.00535 0.53294,0.30804 1.05343,0.65288 1.50278,1.06477 0.49707,0.38069 0.98253,0.77267 1.49993,1.12814 0.41361,0.40076 0.958,0.62978 1.40512,0.99076 0.47586,0.33592 0.98893,0.6189 1.43463,0.99125 0.46817,0.26575 0.89611,0.58244 1.34317,0.878 0.48401,0.20085 0.84523,0.5773 1.3193,0.79221 0.47089,0.25851 0.86025,0.61248 1.28561,0.92752 0.19713,0.13938 0.34976,0.11631 0.57622,0.0899 0,0 -4.45704,2.99236 -4.45704,2.99236 v 0 c -0.27854,-0.0705 -0.52537,-0.16233 -0.74868,-0.34373 -0.38964,-0.31113 -0.78532,-0.61445 -1.23231,-0.85134 -0.45968,-0.26979 -0.88188,-0.59401 -1.35571,-0.84452 -0.44504,-0.31649 -0.9195,-0.59109 -1.36051,-0.91165 -0.46139,-0.34738 -0.96611,-0.63666 -1.43123,-0.9794 -0.46298,-0.3271 -0.96903,-0.60013 -1.3868,-0.98227 -0.51871,-0.38222 -1.04041,-0.76137 -1.53731,-1.16892 -0.45334,-0.37904 -0.94954,-0.70817 -1.46042,-1.01444 -0.50107,-0.33678 -1.00535,-0.67618 -1.45351,-1.07495 -0.39492,-0.36477 -0.81875,-0.70273 -1.2665,-1.00839 -0.45156,-0.31907 -0.89805,-0.64057 -1.32742,-0.98602 -0.48734,-0.35351 -1.01671,-0.6561 -1.45405,-1.06871 -0.78011,-0.58194 -1.56925,-1.15488 -2.4337,-1.62366 0,0 4.56789,-2.80261 4.56789,-2.80261 z"
       inkscape:connector-curvature="0" />
    <path
       style="opacity:1;fill:#000000;fill-opacity:0;stroke:#000000;stroke-width:0.3264876;stroke-miterlimit:4;stroke-dasharray:none;stroke-opacity:0.00507615"
       id="path1801"
       d="m 159.34538,120.20305 c -0.15471,0.0707 -0.61252,0.29399 -0.46412,0.21212 1.37542,-0.75881 5.51621,-3.01139 4.1464,-2.2436 -1.69412,0.94958 -3.41819,1.8508 -5.11941,2.78898 -1.38025,0.76116 5.5397,-3.0142 4.15644,-2.25792 -0.23677,0.12945 -11.9554,6.50151 -0.87968,0.47889 -0.79986,0.45814 -1.56358,0.97112 -2.32892,1.47868 -0.58358,0.3673 -1.11398,0.80026 -1.67082,1.20107 -0.55789,0.36813 -1.10062,0.75671 -1.65682,1.1275 -0.63103,0.40763 -1.24073,0.8435 -1.87212,1.25122 -0.71525,0.42708 -1.42939,0.85594 -2.13378,1.29888 -0.7622,0.45055 -1.48324,0.95959 -2.2127,1.45538 -0.68861,0.42202 -1.32129,0.91322 -1.97319,1.38228 -0.57609,0.39559 -1.1422,0.80425 -1.72232,1.19487 -0.49691,0.33009 -0.93448,0.7271 -1.39777,1.09511 -0.29338,0.18463 -0.58703,0.36978 -0.8596,0.58095 0,0 -5.07793,1.90232 -5.07793,1.90232 v 0 c 0.29934,-0.18708 0.55519,-0.41703 0.84966,-0.61144 0.55911,-0.25124 0.90399,-0.7495 1.42942,-1.05395 0.53855,-0.44584 1.1733,-0.7802 1.71197,-1.22801 0.70248,-0.41154 1.26789,-0.988 1.99226,-1.37006 0.71527,-0.51712 1.45846,-0.99936 2.19354,-1.4901 0.72475,-0.40829 1.40711,-0.88165 2.12597,-1.29954 0.66685,-0.35415 1.22413,-0.84631 1.88932,-1.19588 0.51386,-0.42522 1.12042,-0.74168 1.63714,-1.16472 0.61626,-0.33476 1.11603,-0.8141 1.68792,-1.208 0.79655,-0.47213 1.53734,-1.02562 2.32565,-1.51035 1.69082,-0.92094 3.3725,-1.857 5.07248,-2.7628 1.40306,-0.74759 -5.57308,3.05492 -4.18169,2.28816 1.69882,-0.9362 3.40915,-1.85376 5.10395,-2.7964 1.37341,-0.76389 -5.5255,3.00386 -4.13974,2.26011 1.71639,-0.92123 3.41953,-1.86431 5.1317,-2.79252 0.15587,-0.0845 0.31489,-0.16372 0.47234,-0.24559 0,0 -4.23555,3.23436 -4.23555,3.23436 z"
       inkscape:connector-curvature="0" />
    <text
       xml:space="preserve"
       style="font-style:normal;font-weight:normal;font-size:7.05555557px;line-height:1.25;font-family:sans-serif;letter-spacing:0px;word-spacing:0px;fill:#000000;fill-opacity:1;stroke:none;stroke-width:0.24966237;-inkscape-font-specification:'sans-serif, Normal';font-stretch:normal;font-variant:normal;text-anchor:start;text-align:start;writing-mode:lr;font-variant-ligatures:normal;font-variant-caps:normal;font-variant-numeric:normal;font-feature-settings:normal;"
       x="216.36911"
       y="218.90311"
       id="sensor.netatmo_indoor_temperature"
       transform="scale(1.0293139,0.97152093)"
       inkscape:label="#text1807"><tspan
         sodipodi:role="line"
         id="tspan1805"
         x="216.36911"
         y="218.90311"
         style="stroke-width:0.24966237;-inkscape-font-specification:'sans-serif, Normal';font-family:sans-serif;font-weight:normal;font-style:normal;font-stretch:normal;font-variant:normal;font-size:7.05555557px;text-anchor:start;text-align:start;writing-mode:lr;font-variant-ligatures:normal;font-variant-caps:normal;font-variant-numeric:normal;font-feature-settings:normal;">a</tspan></text>
    <text
       xml:space="preserve"
       style="font-style:normal;font-variant:normal;font-weight:normal;font-stretch:normal;font-size:7.05555534px;line-height:1.25;font-family:sans-serif;-inkscape-font-specification:'sans-serif, Normal';font-variant-ligatures:normal;font-variant-caps:normal;font-variant-numeric:normal;font-feature-settings:normal;text-align:start;letter-spacing:0px;word-spacing:0px;writing-mode:lr-tb;text-anchor:start;fill:#000000;fill-opacity:1;stroke:none;stroke-width:0.24966237"
       x="134.10506"
       y="190.69455"
       id="sensor.entree"
       transform="scale(1.0293139,0.97152093)"
       inkscape:label="#text1807-8"><tspan
         sodipodi:role="line"
         id="tspan1805-9"
         x="134.10506"
         y="190.69455"
         style="font-style:normal;font-variant:normal;font-weight:normal;font-stretch:normal;font-size:7.05555534px;font-family:sans-serif;-inkscape-font-specification:'sans-serif, Normal';font-variant-ligatures:normal;font-variant-caps:normal;font-variant-numeric:normal;font-feature-settings:normal;text-align:start;writing-mode:lr-tb;text-anchor:start;stroke-width:0.24966237">b</tspan></text>
    <text
       xml:space="preserve"
       style="font-style:normal;font-variant:normal;font-weight:normal;font-stretch:normal;font-size:7.05555534px;line-height:1.25;font-family:sans-serif;-inkscape-font-specification:'sans-serif, Normal';font-variant-ligatures:normal;font-variant-caps:normal;font-variant-numeric:normal;font-feature-settings:normal;text-align:start;letter-spacing:0px;word-spacing:0px;writing-mode:lr-tb;text-anchor:start;fill:#000000;fill-opacity:1;stroke:none;stroke-width:0.24966237"
       x="81.990425"
       y="191.116"
       id="sensor.vestibule"
       transform="scale(1.0293139,0.97152093)"
       inkscape:label="#text1807-8-2"><tspan
         sodipodi:role="line"
         id="tspan1805-9-9"
         x="81.990425"
         y="191.116"
         style="font-style:normal;font-variant:normal;font-weight:normal;font-stretch:normal;font-size:7.05555534px;font-family:sans-serif;-inkscape-font-specification:'sans-serif, Normal';font-variant-ligatures:normal;font-variant-caps:normal;font-variant-numeric:normal;font-feature-settings:normal;text-align:start;writing-mode:lr-tb;text-anchor:start;stroke-width:0.24966237">c</tspan></text>
    <text
       xml:space="preserve"
       style="font-style:normal;font-variant:normal;font-weight:normal;font-stretch:normal;font-size:7.05555534px;line-height:1.25;font-family:sans-serif;-inkscape-font-specification:'sans-serif, Normal';font-variant-ligatures:normal;font-variant-caps:normal;font-variant-numeric:normal;font-feature-settings:normal;text-align:start;letter-spacing:0px;word-spacing:0px;writing-mode:lr-tb;text-anchor:start;fill:#000000;fill-opacity:1;stroke:none;stroke-width:0.24966237"
       x="83.301399"
       y="148.08965"
       id="sensor.toilette"
       transform="scale(1.0293139,0.97152093)"
       inkscape:label="#text1807-8-0"><tspan
         sodipodi:role="line"
         id="tspan1805-9-8"
         x="83.301399"
         y="148.08965"
         style="font-style:normal;font-variant:normal;font-weight:normal;font-stretch:normal;font-size:7.05555534px;font-family:sans-serif;-inkscape-font-specification:'sans-serif, Normal';font-variant-ligatures:normal;font-variant-caps:normal;font-variant-numeric:normal;font-feature-settings:normal;text-align:start;writing-mode:lr-tb;text-anchor:start;stroke-width:0.24966237">d</tspan></text>
    <text
       xml:space="preserve"
       style="font-style:normal;font-variant:normal;font-weight:normal;font-stretch:normal;font-size:7.05555534px;line-height:1.25;font-family:sans-serif;-inkscape-font-specification:'sans-serif, Normal';font-variant-ligatures:normal;font-variant-caps:normal;font-variant-numeric:normal;font-feature-settings:normal;text-align:start;letter-spacing:0px;word-spacing:0px;writing-mode:lr-tb;text-anchor:start;fill:#000000;fill-opacity:1;stroke:none;stroke-width:0.24966237"
       x="32.666599"
       y="172.53725"
       id="sensor.salle_de_bain"
       transform="scale(1.0293139,0.97152093)"
       inkscape:label="#text1807-8-0-2"><tspan
         sodipodi:role="line"
         id="tspan1805-9-8-2"
         x="32.666599"
         y="172.53725"
         style="font-style:normal;font-variant:normal;font-weight:normal;font-stretch:normal;font-size:7.05555534px;font-family:sans-serif;-inkscape-font-specification:'sans-serif, Normal';font-variant-ligatures:normal;font-variant-caps:normal;font-variant-numeric:normal;font-feature-settings:normal;text-align:start;writing-mode:lr-tb;text-anchor:start;stroke-width:0.24966237">e</tspan></text>
    <text
       xml:space="preserve"
       style="font-style:normal;font-variant:normal;font-weight:normal;font-stretch:normal;font-size:7.05555534px;line-height:1.25;font-family:sans-serif;-inkscape-font-specification:'sans-serif, Normal';font-variant-ligatures:normal;font-variant-caps:normal;font-variant-numeric:normal;font-feature-settings:normal;text-align:start;letter-spacing:0px;word-spacing:0px;writing-mode:lr-tb;text-anchor:start;fill:#000000;fill-opacity:1;stroke:none;stroke-width:0.24966235"
       x="33.350777"
       y="108.41117"
       id="sensor.netatmo_outdoor_temperature"
       transform="scale(1.0293139,0.97152093)"
       inkscape:label="#text1807-1"><tspan
         sodipodi:role="line"
         id="tspan1805-91"
         x="33.350777"
         y="108.41117"
         style="font-style:normal;font-variant:normal;font-weight:normal;font-stretch:normal;font-size:7.05555534px;font-family:sans-serif;-inkscape-font-specification:'sans-serif, Normal';font-variant-ligatures:normal;font-variant-caps:normal;font-variant-numeric:normal;font-feature-settings:normal;text-align:start;writing-mode:lr-tb;text-anchor:start;stroke-width:0.24966235">f</tspan></text>
    <text
       xml:space="preserve"
       style="font-style:normal;font-variant:normal;font-weight:normal;font-stretch:normal;font-size:7.05555534px;line-height:1.25;font-family:sans-serif;-inkscape-font-specification:'sans-serif, Normal';font-variant-ligatures:normal;font-variant-caps:normal;font-variant-numeric:normal;font-feature-settings:normal;text-align:start;letter-spacing:0px;word-spacing:0px;writing-mode:lr-tb;text-anchor:start;fill:#000000;fill-opacity:1;stroke:none;stroke-width:0.24966235"
       x="121.26117"
       y="256.48599"
       id="sensor.ma_chambre"
       transform="scale(1.0293139,0.97152093)"
       inkscape:label="#text1807-17"><tspan
         sodipodi:role="line"
         id="tspan1805-6"
         x="121.26117"
         y="256.48599"
         style="font-style:normal;font-variant:normal;font-weight:normal;font-stretch:normal;font-size:7.05555534px;font-family:sans-serif;-inkscape-font-specification:'sans-serif, Normal';font-variant-ligatures:normal;font-variant-caps:normal;font-variant-numeric:normal;font-feature-settings:normal;text-align:start;writing-mode:lr-tb;text-anchor:start;stroke-width:0.24966235">f</tspan></text>
  </g>
</svg>
